%TF.GenerationSoftware,KiCad,Pcbnew,(6.0.11)*%
%TF.CreationDate,2023-04-30T18:38:49+02:00*%
%TF.ProjectId,T-DISPLAY-S3,542d4449-5350-44c4-9159-2d53332e6b69,1*%
%TF.SameCoordinates,Original*%
%TF.FileFunction,Profile,NP*%
%FSLAX46Y46*%
G04 Gerber Fmt 4.6, Leading zero omitted, Abs format (unit mm)*
G04 Created by KiCad (PCBNEW (6.0.11)) date 2023-04-30 18:38:49*
%MOMM*%
%LPD*%
G01*
G04 APERTURE LIST*
%TA.AperFunction,Profile*%
%ADD10C,0.100000*%
%TD*%
%TA.AperFunction,Profile*%
%ADD11C,0.250000*%
%TD*%
G04 APERTURE END LIST*
D10*
X82804000Y-237492719D02*
X79495959Y-237493592D01*
X544677600Y-275386800D02*
G75*
G03*
X544677600Y-269386800I0J3000000D01*
G01*
X541369559Y-269387672D02*
G75*
G03*
X541441912Y-275386800I72341J-2999128D01*
G01*
X82804000Y-253461000D02*
X79495959Y-253461873D01*
X541441912Y-243492719D02*
X544677600Y-243492719D01*
D11*
X70828312Y-278738000D02*
X70828312Y-234138000D01*
X70828312Y-234138000D02*
X553428312Y-234138000D01*
D10*
X541369558Y-237493553D02*
G75*
G03*
X541441912Y-243492719I72342J-2999147D01*
G01*
X82804000Y-259461000D02*
G75*
G03*
X82804000Y-253461000I0J3000000D01*
G01*
X544677600Y-269386800D02*
X541369559Y-269387673D01*
X97285252Y-274638275D02*
G75*
G03*
X97285252Y-274638275I-1527252J0D01*
G01*
X541369559Y-253461872D02*
G75*
G03*
X541441912Y-259461000I72341J-2999128D01*
G01*
X79568312Y-275386800D02*
X82804000Y-275386800D01*
X79495959Y-253461872D02*
G75*
G03*
X79568312Y-259461000I72341J-2999128D01*
G01*
X79495959Y-269387672D02*
G75*
G03*
X79568312Y-275386800I72341J-2999128D01*
G01*
X79568312Y-259461000D02*
X82804000Y-259461000D01*
X97302739Y-238137725D02*
G75*
G03*
X97302739Y-238137725I-1544739J0D01*
G01*
D11*
X553428312Y-278738000D02*
X70828312Y-278738000D01*
D10*
X541441912Y-259461000D02*
X544677600Y-259461000D01*
D11*
X553428312Y-234138000D02*
X553428312Y-278738000D01*
D10*
X79495959Y-237493594D02*
G75*
G03*
X79568312Y-243492719I72351J-2999126D01*
G01*
X82804000Y-269386800D02*
X79495959Y-269387673D01*
X529586519Y-238137725D02*
G75*
G03*
X529586519Y-238137725I-1520519J0D01*
G01*
X544677600Y-259461000D02*
G75*
G03*
X544677600Y-253461000I0J3000000D01*
G01*
X541441912Y-275386800D02*
X544677600Y-275386800D01*
X544677600Y-243492681D02*
G75*
G03*
X544677600Y-237492719I0J2999981D01*
G01*
X82804000Y-243492681D02*
G75*
G03*
X82804000Y-237492719I0J2999981D01*
G01*
X544677600Y-237492719D02*
X541369559Y-237493592D01*
X544677600Y-253461000D02*
X541369559Y-253461873D01*
X529590001Y-274638275D02*
G75*
G03*
X529590001Y-274638275I-1533395J0D01*
G01*
X79568312Y-243492719D02*
X82804000Y-243492719D01*
X82804000Y-275386800D02*
G75*
G03*
X82804000Y-269386800I0J3000000D01*
G01*
M02*
