%TF.GenerationSoftware,KiCad,Pcbnew,(6.0.11)*%
%TF.CreationDate,2023-04-30T18:38:49+02:00*%
%TF.ProjectId,T-DISPLAY-S3,542d4449-5350-44c4-9159-2d53332e6b69,1*%
%TF.SameCoordinates,Original*%
%TF.FileFunction,Soldermask,Bot*%
%TF.FilePolarity,Negative*%
%FSLAX46Y46*%
G04 Gerber Fmt 4.6, Leading zero omitted, Abs format (unit mm)*
G04 Created by KiCad (PCBNEW (6.0.11)) date 2023-04-30 18:38:49*
%MOMM*%
%LPD*%
G01*
G04 APERTURE LIST*
%ADD10C,2.000000*%
%ADD11R,3.500000X3.500000*%
%ADD12C,0.650000*%
%ADD13O,1.000000X1.600000*%
%ADD14O,0.900000X2.100000*%
%ADD15R,3.000000X3.000000*%
%ADD16C,3.000000*%
G04 APERTURE END LIST*
D10*
%TO.C,U4*%
X381000000Y-244805201D03*
X383540000Y-244805201D03*
X386080000Y-244805201D03*
X388620000Y-244805201D03*
X391160000Y-244805201D03*
X393700000Y-244805201D03*
X396240000Y-244805201D03*
X398780000Y-244805201D03*
X401320000Y-244805201D03*
X403860000Y-244805201D03*
X406400000Y-244805201D03*
X408940000Y-244805201D03*
X381000000Y-267667065D03*
X383540000Y-267667065D03*
X386080000Y-267667065D03*
X388620000Y-267667065D03*
X391160000Y-267667065D03*
X393700000Y-267667065D03*
X396240000Y-267667065D03*
X398780000Y-267667065D03*
X401320000Y-267667065D03*
X403860000Y-267667065D03*
X406400000Y-267667065D03*
X408940000Y-267667065D03*
%TD*%
%TO.C,U5*%
X452120000Y-244805201D03*
X454660000Y-244805201D03*
X457200000Y-244805201D03*
X459740000Y-244805201D03*
X462280000Y-244805201D03*
X464820000Y-244805201D03*
X467360000Y-244805201D03*
X469900000Y-244805201D03*
X472440000Y-244805201D03*
X474980000Y-244805201D03*
X477520000Y-244805201D03*
X480060000Y-244805201D03*
X452120000Y-267667065D03*
X454660000Y-267667065D03*
X457200000Y-267667065D03*
X459740000Y-267667065D03*
X462280000Y-267667065D03*
X464820000Y-267667065D03*
X467360000Y-267667065D03*
X469900000Y-267667065D03*
X472440000Y-267667065D03*
X474980000Y-267667065D03*
X477520000Y-267667065D03*
X480060000Y-267667065D03*
%TD*%
%TO.C,U3*%
X309880000Y-244805201D03*
X312420000Y-244805201D03*
X314960000Y-244805201D03*
X317500000Y-244805201D03*
X320040000Y-244805201D03*
X322580000Y-244805201D03*
X325120000Y-244805201D03*
X327660000Y-244805201D03*
X330200000Y-244805201D03*
X332740000Y-244805201D03*
X335280000Y-244805201D03*
X337820000Y-244805201D03*
X309880000Y-267667065D03*
X312420000Y-267667065D03*
X314960000Y-267667065D03*
X317500000Y-267667065D03*
X320040000Y-267667065D03*
X322580000Y-267667065D03*
X325120000Y-267667065D03*
X327660000Y-267667065D03*
X330200000Y-267667065D03*
X332740000Y-267667065D03*
X335280000Y-267667065D03*
X337820000Y-267667065D03*
%TD*%
%TO.C,U1*%
X168046400Y-245110000D03*
X170586400Y-245110000D03*
X173126400Y-245110000D03*
X175666400Y-245110000D03*
X178206400Y-245110000D03*
X180746400Y-245110000D03*
X183286400Y-245110000D03*
X185826400Y-245110000D03*
X188366400Y-245110000D03*
X190906400Y-245110000D03*
X193446400Y-245110000D03*
X195986400Y-245110000D03*
X168046400Y-267971864D03*
X170586400Y-267971864D03*
X173126400Y-267971864D03*
X175666400Y-267971864D03*
X178206400Y-267971864D03*
X180746400Y-267971864D03*
X183286400Y-267971864D03*
X185826400Y-267971864D03*
X188366400Y-267971864D03*
X190906400Y-267971864D03*
X193446400Y-267971864D03*
X195986400Y-267971864D03*
%TD*%
%TO.C,U2*%
X238760000Y-245110000D03*
X241300000Y-245110000D03*
X243840000Y-245110000D03*
X246380000Y-245110000D03*
X248920000Y-245110000D03*
X251460000Y-245110000D03*
X254000000Y-245110000D03*
X256540000Y-245110000D03*
X259080000Y-245110000D03*
X261620000Y-245110000D03*
X264160000Y-245110000D03*
X266700000Y-245110000D03*
X238760000Y-267971864D03*
X241300000Y-267971864D03*
X243840000Y-267971864D03*
X246380000Y-267971864D03*
X248920000Y-267971864D03*
X251460000Y-267971864D03*
X254000000Y-267971864D03*
X256540000Y-267971864D03*
X259080000Y-267971864D03*
X261620000Y-267971864D03*
X264160000Y-267971864D03*
X266700000Y-267971864D03*
%TD*%
D11*
%TO.C,J3*%
X138668000Y-248062000D03*
X138668000Y-242062000D03*
X133968000Y-245062000D03*
%TD*%
D12*
%TO.C,J2*%
X149002000Y-240570000D03*
X154782000Y-240570000D03*
D13*
X147572000Y-236890000D03*
D14*
X147572000Y-241070000D03*
X156212000Y-241070000D03*
D13*
X156212000Y-236890000D03*
%TD*%
D15*
%TO.C,J1*%
X126238000Y-237998000D03*
D16*
X121158000Y-237998000D03*
%TD*%
M02*
