M48
; DRILL file {KiCad (6.0.11)} date Sun Apr 30 18:38:53 2023
; FORMAT={-:-/ absolute / inch / decimal}
; #@! TF.CreationDate,2023-04-30T18:38:53+02:00
; #@! TF.GenerationSoftware,Kicad,Pcbnew,(6.0.11)
; #@! TF.FileFunction,Plated,1,2,PTH
FMAT,2
INCH
; #@! TA.AperFunction,Plated,PTH,ViaDrill
T1C0.0157
; #@! TA.AperFunction,Plated,PTH,ComponentDrill
T2C0.0197
; #@! TA.AperFunction,Plated,PTH,ComponentDrill
T3C0.0236
; #@! TA.AperFunction,Plated,PTH,ComponentDrill
T4C0.0394
; #@! TA.AperFunction,Plated,PTH,ComponentDrill
T5C0.0598
%
G90
G05
T1
X-1.8Y-7.9
X5.89Y-9.66
X6.06Y-9.62
X6.67Y-9.54
X6.73Y-9.51
X7.07Y-10.22
X7.31Y-10.74
X7.41Y-10.7
X7.59Y-10.1015
X7.71Y-10.75
X7.77Y-10.69
X7.96Y-10.74
X7.98Y-10.13
X10.17Y-10.07
X10.27Y-10.29
X10.92Y-10.15
X10.92Y-10.19
X12.96Y-10.67
X13.28Y-10.66
X13.3Y-10.73
X13.84Y-10.68
X13.86Y-10.2
X13.86Y-10.64
X15.6Y-10.33
X15.71Y-10.22
X16.39Y-10.22
X16.45Y-10.15
X16.53Y-10.33
T4
X6.616Y-9.65
X6.616Y-10.5501
X6.716Y-9.65
X6.716Y-10.5501
X6.816Y-9.65
X6.816Y-10.5501
X6.916Y-9.65
X6.916Y-10.5501
X7.016Y-9.65
X7.016Y-10.5501
X7.116Y-9.65
X7.116Y-10.5501
X7.216Y-9.65
X7.216Y-10.5501
X7.316Y-9.65
X7.316Y-10.5501
X7.416Y-9.65
X7.416Y-10.5501
X7.516Y-9.65
X7.516Y-10.5501
X7.616Y-9.65
X7.616Y-10.5501
X7.716Y-9.65
X7.716Y-10.5501
X9.4Y-9.65
X9.4Y-10.5501
X9.5Y-9.65
X9.5Y-10.5501
X9.6Y-9.65
X9.6Y-10.5501
X9.7Y-9.65
X9.7Y-10.5501
X9.8Y-9.65
X9.8Y-10.5501
X9.9Y-9.65
X9.9Y-10.5501
X10.0Y-9.65
X10.0Y-10.5501
X10.1Y-9.65
X10.1Y-10.5501
X10.2Y-9.65
X10.2Y-10.5501
X10.3Y-9.65
X10.3Y-10.5501
X10.4Y-9.65
X10.4Y-10.5501
X10.5Y-9.65
X10.5Y-10.5501
X12.2Y-9.638
X12.2Y-10.5381
X12.3Y-9.638
X12.3Y-10.5381
X12.4Y-9.638
X12.4Y-10.5381
X12.5Y-9.638
X12.5Y-10.5381
X12.6Y-9.638
X12.6Y-10.5381
X12.7Y-9.638
X12.7Y-10.5381
X12.8Y-9.638
X12.8Y-10.5381
X12.9Y-9.638
X12.9Y-10.5381
X13.0Y-9.638
X13.0Y-10.5381
X13.1Y-9.638
X13.1Y-10.5381
X13.2Y-9.638
X13.2Y-10.5381
X13.3Y-9.638
X13.3Y-10.5381
X15.0Y-9.638
X15.0Y-10.5381
X15.1Y-9.638
X15.1Y-10.5381
X15.2Y-9.638
X15.2Y-10.5381
X15.3Y-9.638
X15.3Y-10.5381
X15.4Y-9.638
X15.4Y-10.5381
X15.5Y-9.638
X15.5Y-10.5381
X15.6Y-9.638
X15.6Y-10.5381
X15.7Y-9.638
X15.7Y-10.5381
X15.8Y-9.638
X15.8Y-10.5381
X15.9Y-9.638
X15.9Y-10.5381
X16.0Y-9.638
X16.0Y-10.5381
X16.1Y-9.638
X16.1Y-10.5381
X17.8Y-9.638
X17.8Y-10.5381
X17.9Y-9.638
X17.9Y-10.5381
X18.0Y-9.638
X18.0Y-10.5381
X18.1Y-9.638
X18.1Y-10.5381
X18.2Y-9.638
X18.2Y-10.5381
X18.3Y-9.638
X18.3Y-10.5381
X18.4Y-9.638
X18.4Y-10.5381
X18.5Y-9.638
X18.5Y-10.5381
X18.6Y-9.638
X18.6Y-10.5381
X18.7Y-9.638
X18.7Y-10.5381
X18.8Y-9.638
X18.8Y-10.5381
X18.9Y-9.638
X18.9Y-10.5381
T5
X4.77Y-9.37
X4.97Y-9.37
T2
G00X5.8099Y-9.5146
M15
G01X5.8099Y-9.4673
M16
G05
G00X6.1501Y-9.5146
M15
G01X6.1501Y-9.4673
M16
G05
T3
G00X5.8099Y-9.3382
M15
G01X5.8099Y-9.3146
M16
G05
G00X6.1501Y-9.3382
M15
G01X6.1501Y-9.3146
M16
G05
T4
G00X5.2743Y-9.6087
M15
G01X5.2743Y-9.6875
M16
G05
G00X5.4987Y-9.53
M15
G01X5.42Y-9.53
M16
G05
G00X5.4987Y-9.7662
M15
G01X5.42Y-9.7662
M16
G05
T0
M30
