%TF.GenerationSoftware,KiCad,Pcbnew,(6.0.11)*%
%TF.CreationDate,2023-04-30T18:38:49+02:00*%
%TF.ProjectId,T-DISPLAY-S3,542d4449-5350-44c4-9159-2d53332e6b69,1*%
%TF.SameCoordinates,Original*%
%TF.FileFunction,Soldermask,Top*%
%TF.FilePolarity,Negative*%
%FSLAX46Y46*%
G04 Gerber Fmt 4.6, Leading zero omitted, Abs format (unit mm)*
G04 Created by KiCad (PCBNEW (6.0.11)) date 2023-04-30 18:38:49*
%MOMM*%
%LPD*%
G01*
G04 APERTURE LIST*
G04 Aperture macros list*
%AMRoundRect*
0 Rectangle with rounded corners*
0 $1 Rounding radius*
0 $2 $3 $4 $5 $6 $7 $8 $9 X,Y pos of 4 corners*
0 Add a 4 corners polygon primitive as box body*
4,1,4,$2,$3,$4,$5,$6,$7,$8,$9,$2,$3,0*
0 Add four circle primitives for the rounded corners*
1,1,$1+$1,$2,$3*
1,1,$1+$1,$4,$5*
1,1,$1+$1,$6,$7*
1,1,$1+$1,$8,$9*
0 Add four rect primitives between the rounded corners*
20,1,$1+$1,$2,$3,$4,$5,0*
20,1,$1+$1,$4,$5,$6,$7,0*
20,1,$1+$1,$6,$7,$8,$9,0*
20,1,$1+$1,$8,$9,$2,$3,0*%
G04 Aperture macros list end*
%ADD10C,2.000000*%
%ADD11RoundRect,0.200000X-0.200000X-0.275000X0.200000X-0.275000X0.200000X0.275000X-0.200000X0.275000X0*%
%ADD12RoundRect,0.200000X-0.275000X0.200000X-0.275000X-0.200000X0.275000X-0.200000X0.275000X0.200000X0*%
%ADD13R,3.500000X3.500000*%
%ADD14C,0.650000*%
%ADD15R,0.300000X1.750000*%
%ADD16O,1.000000X1.600000*%
%ADD17O,0.900000X2.100000*%
%ADD18R,3.000000X3.000000*%
%ADD19C,3.000000*%
G04 APERTURE END LIST*
D10*
%TO.C,U4*%
X381000000Y-244805201D03*
X383540000Y-244805201D03*
X386080000Y-244805201D03*
X388620000Y-244805201D03*
X391160000Y-244805201D03*
X393700000Y-244805201D03*
X396240000Y-244805201D03*
X398780000Y-244805201D03*
X401320000Y-244805201D03*
X403860000Y-244805201D03*
X406400000Y-244805201D03*
X408940000Y-244805201D03*
X381000000Y-267667065D03*
X383540000Y-267667065D03*
X386080000Y-267667065D03*
X388620000Y-267667065D03*
X391160000Y-267667065D03*
X393700000Y-267667065D03*
X396240000Y-267667065D03*
X398780000Y-267667065D03*
X401320000Y-267667065D03*
X403860000Y-267667065D03*
X406400000Y-267667065D03*
X408940000Y-267667065D03*
%TD*%
D11*
%TO.C,R2*%
X167885000Y-238760000D03*
X169535000Y-238760000D03*
%TD*%
D10*
%TO.C,U5*%
X452120000Y-244805201D03*
X454660000Y-244805201D03*
X457200000Y-244805201D03*
X459740000Y-244805201D03*
X462280000Y-244805201D03*
X464820000Y-244805201D03*
X467360000Y-244805201D03*
X469900000Y-244805201D03*
X472440000Y-244805201D03*
X474980000Y-244805201D03*
X477520000Y-244805201D03*
X480060000Y-244805201D03*
X452120000Y-267667065D03*
X454660000Y-267667065D03*
X457200000Y-267667065D03*
X459740000Y-267667065D03*
X462280000Y-267667065D03*
X464820000Y-267667065D03*
X467360000Y-267667065D03*
X469900000Y-267667065D03*
X472440000Y-267667065D03*
X474980000Y-267667065D03*
X477520000Y-267667065D03*
X480060000Y-267667065D03*
%TD*%
%TO.C,U3*%
X309880000Y-244805201D03*
X312420000Y-244805201D03*
X314960000Y-244805201D03*
X317500000Y-244805201D03*
X320040000Y-244805201D03*
X322580000Y-244805201D03*
X325120000Y-244805201D03*
X327660000Y-244805201D03*
X330200000Y-244805201D03*
X332740000Y-244805201D03*
X335280000Y-244805201D03*
X337820000Y-244805201D03*
X309880000Y-267667065D03*
X312420000Y-267667065D03*
X314960000Y-267667065D03*
X317500000Y-267667065D03*
X320040000Y-267667065D03*
X322580000Y-267667065D03*
X325120000Y-267667065D03*
X327660000Y-267667065D03*
X330200000Y-267667065D03*
X332740000Y-267667065D03*
X335280000Y-267667065D03*
X337820000Y-267667065D03*
%TD*%
D12*
%TO.C,R3*%
X153670000Y-246571000D03*
X153670000Y-248221000D03*
%TD*%
D11*
%TO.C,R1*%
X171895000Y-238760000D03*
X173545000Y-238760000D03*
%TD*%
D10*
%TO.C,U1*%
X168046400Y-245110000D03*
X170586400Y-245110000D03*
X173126400Y-245110000D03*
X175666400Y-245110000D03*
X178206400Y-245110000D03*
X180746400Y-245110000D03*
X183286400Y-245110000D03*
X185826400Y-245110000D03*
X188366400Y-245110000D03*
X190906400Y-245110000D03*
X193446400Y-245110000D03*
X195986400Y-245110000D03*
X168046400Y-267971864D03*
X170586400Y-267971864D03*
X173126400Y-267971864D03*
X175666400Y-267971864D03*
X178206400Y-267971864D03*
X180746400Y-267971864D03*
X183286400Y-267971864D03*
X185826400Y-267971864D03*
X188366400Y-267971864D03*
X190906400Y-267971864D03*
X193446400Y-267971864D03*
X195986400Y-267971864D03*
%TD*%
D12*
%TO.C,R4*%
X150622000Y-246571000D03*
X150622000Y-248221000D03*
%TD*%
D10*
%TO.C,U2*%
X238760000Y-245110000D03*
X241300000Y-245110000D03*
X243840000Y-245110000D03*
X246380000Y-245110000D03*
X248920000Y-245110000D03*
X251460000Y-245110000D03*
X254000000Y-245110000D03*
X256540000Y-245110000D03*
X259080000Y-245110000D03*
X261620000Y-245110000D03*
X264160000Y-245110000D03*
X266700000Y-245110000D03*
X238760000Y-267971864D03*
X241300000Y-267971864D03*
X243840000Y-267971864D03*
X246380000Y-267971864D03*
X248920000Y-267971864D03*
X251460000Y-267971864D03*
X254000000Y-267971864D03*
X256540000Y-267971864D03*
X259080000Y-267971864D03*
X261620000Y-267971864D03*
X264160000Y-267971864D03*
X266700000Y-267971864D03*
%TD*%
D13*
%TO.C,J3*%
X138668000Y-248062000D03*
X138668000Y-242062000D03*
X133968000Y-245062000D03*
%TD*%
D14*
%TO.C,J2*%
X149002000Y-240570000D03*
X154782000Y-240570000D03*
D15*
X155242000Y-241910000D03*
X154442000Y-241910000D03*
X153142000Y-241910000D03*
X152142000Y-241910000D03*
X151642000Y-241910000D03*
X150642000Y-241910000D03*
X149342000Y-241910000D03*
X148542000Y-241910000D03*
X148842000Y-241910000D03*
X149642000Y-241910000D03*
X150142000Y-241910000D03*
X151142000Y-241910000D03*
X152642000Y-241910000D03*
X153642000Y-241910000D03*
X154142000Y-241910000D03*
X154942000Y-241910000D03*
D16*
X147572000Y-236890000D03*
D17*
X147572000Y-241070000D03*
X156212000Y-241070000D03*
D16*
X156212000Y-236890000D03*
%TD*%
D18*
%TO.C,J1*%
X126238000Y-237998000D03*
D19*
X121158000Y-237998000D03*
%TD*%
M02*
